<svg width="22" height="26" viewBox="0 0 22 26" fill="none" xmlns="http://www.w3.org/2000/svg">
<path d="M19.5032 3.06147H16.0317V0.805622C16.0317 0.351551 15.6655 0 15.2114 0C15.1674 0 15.138 0.0147081 15.1237 0.0293827C15.109 0.0147081 15.0796 0 15.0649 0H6.90602H6.84759H6.78882C6.33478 0 5.98323 0.351551 5.98323 0.805622V3.06151H2.49707C1.50085 3.06151 0.724609 3.83775 0.724609 4.83397V6.12301V7.73422H2.26268V24.2422C2.26268 25.2385 3.02425 26 4.02047 26H17.9799C18.9761 26 19.7523 25.2385 19.7523 24.2422V7.73422H21.2757V6.12301V4.83397C21.2757 3.83775 20.4991 3.06147 19.5032 3.06147ZM7.59444 1.61121H14.4058V3.06147H7.59444V1.61121ZM18.1264 24.2423C18.1264 24.3451 18.0823 24.3888 17.9799 24.3888H4.02047C3.91798 24.3888 3.87393 24.345 3.87393 24.2423V7.73419H18.1264V24.2423ZM19.6498 6.12298H2.35049V4.83394C2.35049 4.73142 2.39455 4.67268 2.49704 4.67268H19.5032C19.6057 4.67268 19.6498 4.73142 19.6498 4.83394V6.12298Z" fill="white"/>
<path d="M15.5775 9.62305H13.9517V22.9524H15.5775V9.62305Z" fill="white"/>
<path d="M11.8275 9.62305H10.2017V22.9524H11.8275V9.62305Z" fill="white"/>
<path d="M8.07803 9.62305H6.45215V22.9524H8.07803V9.62305Z" fill="white"/>
</svg>
