<svg width="13" height="13" viewBox="0 0 13 13" fill="none" xmlns="http://www.w3.org/2000/svg">
<g clip-path="url(#clip0_682_182)">
<path d="M10.508 1.74031H8.85573V0.666639C8.85573 0.450524 8.68141 0.283203 8.46531 0.283203C8.44434 0.283203 8.43036 0.290203 8.42353 0.297188C8.41653 0.290203 8.40255 0.283203 8.39556 0.283203H4.51235H4.48454H4.45657C4.24047 0.283203 4.07315 0.450524 4.07315 0.666639V1.74032H2.41392C1.93976 1.74032 1.57031 2.10978 1.57031 2.58393V3.19745V3.9643H2.30236V11.8213C2.30236 12.2955 2.66482 12.6579 3.13898 12.6579H9.78294C10.2571 12.6579 10.6265 12.2955 10.6265 11.8213V3.9643H11.3516V3.19745V2.58393C11.3516 2.10978 10.982 1.74031 10.508 1.74031ZM4.84001 1.05006H8.08189V1.74031H4.84001V1.05006ZM9.85268 11.8213C9.85268 11.8702 9.83171 11.891 9.78294 11.891H3.13898C3.0902 11.891 3.06923 11.8702 3.06923 11.8213V3.96429H9.85268V11.8213ZM10.5777 3.19743H2.34415V2.58391C2.34415 2.53512 2.36512 2.50716 2.4139 2.50716H10.508C10.5568 2.50716 10.5777 2.53512 10.5777 2.58391V3.19743Z" fill="white"/>
<path d="M8.63956 4.86328H7.86572V11.2074H8.63956V4.86328Z" fill="white"/>
<path d="M6.85489 4.86328H6.08105V11.2074H6.85489V4.86328Z" fill="white"/>
<path d="M5.07023 4.86328H4.29639V11.2074H5.07023V4.86328Z" fill="white"/>
</g>
<defs>
<clipPath id="clip0_682_182">
<rect x="0.273438" y="0.283203" width="12.3747" height="12.3747" rx="3" fill="white"/>
</clipPath>
</defs>
</svg>
