<svg width="800" height="800" viewBox="0 0 800 800" fill="none" xmlns="http://www.w3.org/2000/svg">
<path d="M400 733.334C584.094 733.334 733.334 584.094 733.334 400C733.334 215.905 584.094 66.667 400 66.667C215.905 66.667 66.667 215.905 66.667 400C66.667 453.324 79.1877 503.72 101.449 548.417C107.365 560.294 109.334 573.87 105.904 586.687L86.0507 660.89C77.432 693.1 106.901 722.567 139.112 713.95L213.313 694.097C226.131 690.667 239.707 692.637 251.585 698.55C296.279 720.814 346.677 733.334 400 733.334Z" stroke="#F83D56" stroke-width="50"/>
<path opacity="0.5" d="M266.667 400H266.967M399.7 400H400M533.034 400H533.334" stroke="#F83D56" stroke-width="66.6667" stroke-linecap="round" stroke-linejoin="round"/>
</svg>
