<svg width="121" height="121" viewBox="0 0 121 121" fill="none" xmlns="http://www.w3.org/2000/svg">
<path fill-rule="evenodd" clip-rule="evenodd" d="M105.875 45.375H75.625V15.125C75.625 6.76844 68.8528 0 60.5 0C52.1472 0 45.375 6.76844 45.375 15.125V45.375H15.125C6.77222 45.375 0 52.1434 0 60.5C0 68.8566 6.77222 75.625 15.125 75.625H45.375V105.875C45.375 114.232 52.1472 121 60.5 121C68.8528 121 75.625 114.232 75.625 105.875V75.625H105.875C114.228 75.625 121 68.8566 121 60.5C121 52.1434 114.228 45.375 105.875 45.375Z" fill="#F83D56"/>
</svg>
