<svg width="105" height="131" viewBox="0 0 105 131" fill="none" xmlns="http://www.w3.org/2000/svg">
<path d="M52.5 14.057L13.25 28.7757V52.4173C13.2509 60.8261 15.049 69.1376 18.524 76.7948C21.9989 84.452 27.0703 91.2781 33.3983 96.8156L52.5 113.53V14.057ZM4.41217 18.1128L52.5 0.0839844L100.588 18.1194C101.834 18.5867 102.909 19.4233 103.667 20.5174C104.426 21.6115 104.833 22.911 104.833 24.2424V52.4173C104.833 73.2002 95.8581 92.9756 80.217 106.667L52.5 130.917L24.7829 106.667C17.0504 99.9015 10.8537 91.5608 6.60814 82.2044C2.36259 72.8479 0.166344 62.6919 0.166626 52.4173V24.2424C0.167126 22.911 0.573851 21.6115 1.33247 20.5174C2.0911 19.4233 3.1655 18.5801 4.41217 18.1128Z" fill="#F83D56"/>
</svg>
