<svg width="105" height="127" viewBox="0 0 105 127" fill="none" xmlns="http://www.w3.org/2000/svg">
<path d="M52.0555 126.91C22.1351 126.91 0.910217 106.161 0.910217 77.5741C0.910217 62.3976 10.0106 46.0463 10.3955 45.3637C11.1853 43.9588 12.7371 43.1928 14.3563 43.3714C15.9597 43.5778 17.2773 44.7327 17.6901 46.2924C17.7139 46.3876 20.1666 55.5634 23.4051 60.6593C25.58 64.0883 27.7866 66.5132 30.2671 68.1959C28.5883 60.9212 27.3024 49.9754 29.3939 38.7438C35.1407 7.91457 59.4056 0.536668 60.4454 0.242981C61.7829 -0.141988 63.2037 0.203294 64.2197 1.12801C65.2357 2.06067 65.7001 3.4537 65.4381 4.80704C65.3984 5.02136 61.39 26.6074 69.895 44.9986C70.6689 46.6694 71.7445 48.6101 72.9034 50.5509C73.2328 47.8839 73.7447 45.0502 74.5305 42.2959C77.65 31.3858 85.7184 27.6591 86.0558 27.5083C87.4012 26.8971 88.9728 27.0955 90.1317 28.0084C91.2906 28.9251 91.8502 30.4015 91.5803 31.8541C91.5366 32.1239 90.4135 39.5455 96.7317 50.0786C102.439 59.5877 104.082 65.7512 104.082 77.5741C104.082 106.161 82.1982 126.906 52.0476 126.906L52.0555 126.91ZM13.2689 58.0042C11.0901 63.5009 8.84375 70.8074 8.84375 77.5741C8.84375 101.561 26.7269 118.968 52.0515 118.968C77.6023 118.968 96.1443 101.561 96.1443 77.5701C96.1443 67.2077 94.8624 62.4015 89.9253 54.1584C86.6233 48.6578 84.9922 43.7087 84.2143 39.7717C83.4285 41.0457 82.6982 42.5975 82.1664 44.4707C79.7455 52.9281 80.3567 62.8183 80.3646 62.9215C80.4797 64.6915 79.4042 66.3306 77.7294 66.9219C76.0545 67.5133 74.1892 66.9299 73.1613 65.4773C72.8637 65.0527 65.8033 55.0633 62.6957 48.3323C56.2346 34.3703 56.3418 19.2692 57.0045 10.5736C50.464 14.3836 40.4271 22.8926 37.2044 40.2043C34.0652 57.0477 40.1651 73.8911 40.2286 74.0538C40.7565 75.427 40.4787 76.9867 39.5103 78.094C38.5379 79.1933 37.0417 79.6815 35.5971 79.3362C35.105 79.2171 23.9369 76.312 16.7019 64.9138C15.412 62.8738 14.2532 60.4013 13.2729 58.0002L13.2689 58.0042Z" fill="#F83D56"/>
</svg>
