<svg width="117" height="117" viewBox="0 0 117 117" fill="none" xmlns="http://www.w3.org/2000/svg">
<path d="M115.941 0.9256C115.722 0.70646 115.462 0.532622 115.176 0.414019C114.89 0.295416 114.583 0.234372 114.273 0.234375H114.266L76.6343 0.353035C76.288 0.354106 75.9462 0.431399 75.6331 0.579431C75.32 0.727463 75.0433 0.942603 74.8228 1.20958L31.6473 53.4747L24.9032 46.7306C23.5746 45.4055 21.7747 44.6613 19.8982 44.6613C18.0217 44.6613 16.2218 45.4055 14.8932 46.7306L7.41063 54.2137C6.75322 54.8709 6.23171 55.6512 5.87591 56.5099C5.5201 57.3687 5.33697 58.2892 5.33697 59.2187C5.33697 60.1483 5.5201 61.0688 5.87591 61.9276C6.23171 62.7863 6.75322 63.5666 7.41063 64.2238L19.7305 76.544C20.1723 76.9868 20.4205 77.5867 20.4205 78.2123C20.4205 78.8378 20.1723 79.4378 19.7305 79.8806L2.06978 97.5413C0.744359 98.8698 0 100.67 0 102.546C0 104.423 0.744359 106.223 2.06978 107.551L9.31611 114.797C9.97333 115.454 10.7536 115.976 11.6123 116.331C12.471 116.687 13.3914 116.87 14.3209 116.87C15.2503 116.87 16.1707 116.687 17.0294 116.331C17.8881 115.976 18.6684 115.454 19.3256 114.797L36.9863 97.1364C37.2054 96.9172 37.4655 96.7434 37.7518 96.6248C38.0381 96.5062 38.3449 96.4451 38.6548 96.4451C38.9647 96.4451 39.2715 96.5062 39.5578 96.6248C39.844 96.7434 40.1041 96.9172 40.3232 97.1364L52.6431 109.457C53.9717 110.782 55.7717 111.526 57.6482 111.526C59.5247 111.526 61.3246 110.782 62.6532 109.457L70.1357 101.974C70.7931 101.317 71.3146 100.536 71.6704 99.6776C72.0262 98.8188 72.2094 97.8983 72.2094 96.9687C72.2094 96.0392 72.0262 95.1187 71.6704 94.2599C71.3146 93.4012 70.7931 92.6209 70.1357 91.9637L63.3919 85.22L115.657 42.0442C115.924 41.8235 116.139 41.5469 116.287 41.2338C116.435 40.9207 116.513 40.5789 116.514 40.2326L116.633 2.60124C116.634 2.29015 116.573 1.98194 116.454 1.69435C116.336 1.40677 116.161 1.1455 115.941 0.9256ZM67.4906 96.9687C67.4914 97.2787 67.4308 97.5857 67.3121 97.8721C67.1935 98.1584 67.0192 98.4184 66.7994 98.6369L59.3169 106.12C58.8739 106.562 58.2738 106.81 57.6482 106.81C57.0225 106.81 56.4224 106.562 55.9794 106.12L43.6595 93.7998C43.0024 93.1424 42.2221 92.621 41.3634 92.2653C40.5047 91.9095 39.5843 91.7264 38.6548 91.7264C37.7253 91.7264 36.8049 91.9095 35.9462 92.2653C35.0874 92.621 34.3072 93.1424 33.65 93.7998L15.9893 111.46C15.7702 111.679 15.5101 111.853 15.2238 111.972C14.9376 112.09 14.6307 112.151 14.3209 112.151C14.011 112.151 13.7041 112.09 13.4179 111.972C13.1316 111.853 12.8715 111.679 12.6524 111.46L5.40609 104.214C4.96428 103.772 4.71616 103.172 4.71616 102.546C4.71616 101.921 4.96428 101.321 5.40609 100.878L23.0668 83.2174C24.3923 81.889 25.1366 80.089 25.1366 78.2124C25.1366 76.3358 24.3923 74.5358 23.0668 73.2074L10.7469 60.8869C10.5278 60.6679 10.354 60.4078 10.2354 60.1216C10.1168 59.8354 10.0557 59.5286 10.0557 59.2187C10.0557 58.9089 10.1168 58.6021 10.2354 58.3159C10.354 58.0297 10.5278 57.7696 10.7469 57.5506L18.2294 50.0675C18.6725 49.6258 19.2725 49.3777 19.8982 49.3777C20.5238 49.3777 21.1239 49.6258 21.5669 50.0675L66.7994 95.3006C67.0192 95.5191 67.1935 95.7791 67.3121 96.0654C67.4308 96.3518 67.4914 96.6588 67.4906 96.9687ZM111.799 39.1111L60.0401 81.8681L49.1878 71.0156L82.9101 37.2931C83.1297 37.0742 83.3039 36.8141 83.4229 36.5277C83.5419 36.2414 83.6033 35.9344 83.6035 35.6243C83.6037 35.3142 83.5428 35.0071 83.4242 34.7205C83.3057 34.434 83.1318 34.1737 82.9125 33.9544C82.6932 33.7351 82.4329 33.5612 82.1464 33.4427C81.8598 33.3241 81.5527 33.2632 81.2426 33.2634C80.9325 33.2636 80.6255 33.325 80.3392 33.444C80.0528 33.563 79.7927 33.7373 79.5738 33.9569L45.8514 67.679L34.9991 56.8265L77.7558 5.06834L111.906 4.96063L111.799 39.1111Z" fill="#F83D56"/>
</svg>
