<svg width="14" height="14" viewBox="0 0 14 14" fill="none" xmlns="http://www.w3.org/2000/svg">
<path d="M12.6741 13.0066C12.1023 13.5784 11.1751 13.5784 10.6033 13.0066L0.471442 2.87469C-0.100378 2.30287 -0.100377 1.37577 0.471443 0.803947V0.803947C1.04326 0.232127 1.97037 0.232127 2.54219 0.803947L12.6741 10.9358C13.2459 11.5077 13.2459 12.4348 12.6741 13.0066V13.0066ZM2.54216 13.0066C1.97034 13.5784 1.04324 13.5784 0.471415 13.0066V13.0066C-0.100405 12.4348 -0.100405 11.5076 0.471415 10.9358L10.6033 0.803955C11.1751 0.232135 12.1022 0.232134 12.674 0.803954V0.803954C13.2459 1.37577 13.2459 2.30288 12.674 2.8747L2.54216 13.0066Z" fill="white"/>
</svg>
