<svg width="800" height="800" viewBox="0 0 800 800" fill="none" xmlns="http://www.w3.org/2000/svg">
<path d="M405.337 362.333C402.003 361.999 398.003 361.999 394.337 362.333C315.002 359.666 252.002 294.666 252.002 214.666C252.002 132.999 318.002 66.666 400.003 66.666C481.67 66.666 548.003 132.999 548.003 214.666C547.67 294.666 484.67 359.666 405.337 362.333Z" stroke="black" stroke-width="50" stroke-linecap="round" stroke-linejoin="round"/>
<path d="M238.666 485.334C157.999 539.334 157.999 627.334 238.666 681.001C330.332 742.334 480.667 742.334 572.333 681.001C653 627.001 653 539.001 572.333 485.334C481 424.334 330.666 424.334 238.666 485.334Z" stroke="black" stroke-width="50" stroke-linecap="round" stroke-linejoin="round"/>
</svg>
