<svg width="189" height="103" viewBox="0 0 189 103" fill="none" xmlns="http://www.w3.org/2000/svg">
<path d="M97.6937 35.2466L98.2815 36.9167H100.052H185.958V66.0833H171.375H168.875V68.5833V100.25H139.708V68.5833V66.0833H137.208H100.052H98.2815L97.6937 67.7534C91.0306 86.6863 72.9915 100.25 51.7915 100.25C24.8993 100.25 3.0415 78.3922 3.0415 51.5C3.0415 24.6078 24.8993 2.75 51.7915 2.75C72.9915 2.75 91.0306 16.3137 97.6937 35.2466ZM32.2082 51.5C32.2082 62.2765 41.015 71.0833 51.7915 71.0833C62.5681 71.0833 71.3748 62.2765 71.3748 51.5C71.3748 40.7235 62.5681 31.9167 51.7915 31.9167C41.015 31.9167 32.2082 40.7235 32.2082 51.5Z" stroke="url(#paint0_linear_494_35)" stroke-width="5"/>
<defs>
<linearGradient id="paint0_linear_494_35" x1="10.4502" y1="5.375" x2="182.65" y2="98.65" gradientUnits="userSpaceOnUse">
<stop offset="0.107216" stop-color="#F83D56"/>
<stop offset="1" stop-color="white"/>
</linearGradient>
</defs>
</svg>
