<svg width="165" height="165" viewBox="0 0 165 165" fill="none" xmlns="http://www.w3.org/2000/svg">
<path d="M151.063 118.302C151.063 119.952 149.681 121.295 147.959 121.295H105.884C90.9107 121.295 85.4753 128.052 85.4753 128.052L84.784 128.981L84.461 129.43C84.4583 129.43 84.4583 129.43 84.4583 129.43C83.0302 131.368 80.9306 129.445 80.9206 129.43L79.9516 128.224C79.2325 127.361 73.7316 121.295 60.4218 121.295H17.0369C15.3236 121.295 13.9408 119.947 13.9408 118.297V28.7882C13.9408 27.134 15.3261 25.7993 17.0369 25.7993H50.7166C75.7701 25.7993 78.1422 40.0286 78.3063 44.1609V106.413C78.3063 110.937 80.4612 111.783 81.6777 111.906H83.4895C84.7285 111.783 86.6992 111.046 86.6992 107.521V43.3622H86.6767C86.8684 38.1868 88.8819 25.7993 103.952 25.7993H147.96C149.681 25.7993 151.064 27.1354 151.064 28.7882L151.063 118.302ZM162.212 43.365H162.065C159.239 43.3825 158.8 40.921 158.752 39.7831V21.9311C158.752 20.0284 157.205 18.4842 155.305 18.4842H104.267C91.4584 18.4842 86.6837 23.2284 85.4981 24.722L85.1723 25.1711L85.1698 25.1761L84.1578 26.5614C82.8027 28.4238 81.6218 27.6287 81.0514 27.0207L79.1184 24.6109L78.1647 23.4603C76.5597 21.7733 72.3735 18.4814 64.0789 18.4814H9.70379C7.79858 18.4814 6.25442 20.0259 6.25442 21.9286V39.5557C6.25442 42.6382 4.57889 43.2614 3.55074 43.3622H2.78366C1.94687 43.4116 0 43.8999 0 47.4831V131.474C0 133.539 1.67192 135.209 3.7321 135.209H53.3573C69.1891 135.209 76.0881 141.179 78.1572 143.465L79.3381 144.929H79.3406C79.3406 144.929 82.5075 148.507 85.8433 144.929L86.5398 144.116V144.126L86.5451 144.116L87.4283 143.082C87.4536 143.052 87.668 142.814 87.9735 142.496C90.6177 139.928 97.219 135.209 110.129 135.209H161.273C163.334 135.209 165 133.538 165 131.474V46.6694C165.003 43.636 162.8 43.38 162.212 43.365Z" fill="url(#paint0_linear_599_183)"/>
<defs>
<linearGradient id="paint0_linear_599_183" x1="-16.5" y1="38.5" x2="82.5" y2="146.519" gradientUnits="userSpaceOnUse">
<stop offset="0.301109" stop-color="#F83D56"/>
<stop offset="1" stop-color="#F5F5F5"/>
</linearGradient>
</defs>
</svg>
