<svg width="189" height="103" viewBox="0 0 189 103" fill="none" xmlns="http://www.w3.org/2000/svg">
<path d="M95.3357 36.0765L96.5112 39.4167H100.052H183.458V63.5833H171.375H166.375V68.5833V97.75H142.208V68.5833V63.5833H137.208H100.052H96.5112L95.3357 66.9235C89.0137 84.8873 71.898 97.75 51.7918 97.75C26.2803 97.75 5.54175 77.0115 5.54175 51.5C5.54175 25.9885 26.2803 5.25 51.7918 5.25C71.898 5.25 89.0137 18.1127 95.3357 36.0765ZM29.7084 51.5C29.7084 63.6573 39.6345 73.5833 51.7918 73.5833C63.949 73.5833 73.8751 63.6573 73.8751 51.5C73.8751 39.3427 63.949 29.4167 51.7918 29.4167C39.6345 29.4167 29.7084 39.3427 29.7084 51.5Z" stroke="url(#paint0_linear_621_66)" stroke-width="10"/>
<defs>
<linearGradient id="paint0_linear_621_66" x1="10.4504" y1="5.375" x2="182.65" y2="98.65" gradientUnits="userSpaceOnUse">
<stop offset="0.107216" stop-color="#F83D56"/>
<stop offset="1" stop-color="white"/>
</linearGradient>
</defs>
</svg>
