<svg width="170" height="166" viewBox="0 0 170 166" fill="none" xmlns="http://www.w3.org/2000/svg">
<g clip-path="url(#clip0_621_203)">
<mask id="mask0_621_203" style="mask-type:luminance" maskUnits="userSpaceOnUse" x="0" y="0" width="170" height="166">
<path d="M170 0H0V166H170V0Z" fill="white"/>
<path d="M74.67 152.276V13.7246H95.2661V152.276H74.67ZM13.8623 92.8033V73.5238H156.074V92.8033H13.8623Z" fill="black"/>
</mask>
<g mask="url(#mask0_621_203)">
<path d="M74.67 152.275H61.5931V165.346H74.67V152.275ZM74.67 13.7242V0.65332H61.5931V13.7242H74.67ZM95.2662 13.7242H108.343V0.65332H95.2662V13.7242ZM95.2662 152.275V165.346H108.343V152.275H95.2662ZM13.8623 92.8029H0.7854V105.874H13.8623V92.8029ZM13.8623 73.5234V60.4525H0.7854V73.5234H13.8623ZM156.074 73.5234H169.151V60.4525H156.074V73.5234ZM156.074 92.8029V105.874H169.151V92.8029H156.074ZM87.747 152.275V13.7242H61.5931V152.275H87.747ZM74.67 26.7951H95.2662V0.65332H74.67V26.7951ZM82.1893 13.7242V152.275H108.343V13.7242H82.1893ZM95.2662 139.205H74.67V165.346H95.2662V139.205ZM26.9393 92.8029V73.5234H0.7854V92.8029H26.9393ZM13.8623 86.5943H156.074V60.4525H13.8623V86.5943ZM142.997 73.5234V92.8029H169.151V73.5234H142.997ZM156.074 79.7321H13.8623V105.874H156.074V79.7321Z" fill="url(#paint0_linear_621_203)"/>
</g>
</g>
<defs>
<linearGradient id="paint0_linear_621_203" x1="-124.231" y1="-25.4884" x2="198.651" y2="236.075" gradientUnits="userSpaceOnUse">
<stop offset="0.447173" stop-color="#F83D56"/>
<stop offset="1" stop-color="#F5F5F5"/>
</linearGradient>
<clipPath id="clip0_621_203">
<rect width="170" height="166" fill="white"/>
</clipPath>
</defs>
</svg>
