<svg width="144" height="165" viewBox="0 0 144 165" fill="none" xmlns="http://www.w3.org/2000/svg">
<path fill-rule="evenodd" clip-rule="evenodd" d="M16.25 26.2031H9.5C7.016 26.2031 5 28.5131 5 31.3594C5 34.2056 7.016 36.5156 9.5 36.5156H16.25V51.9844H9.5C7.016 51.9844 5 54.2944 5 57.1406C5 59.9869 7.016 62.2969 9.5 62.2969H16.25V77.7656H9.5C7.016 77.7656 5 80.0756 5 82.9219C5 85.7681 7.016 88.0781 9.5 88.0781H16.25V103.547H9.5C7.016 103.547 5 105.857 5 108.703C5 111.549 7.016 113.859 9.5 113.859H16.25V129.328H9.5C7.016 129.328 5 131.638 5 134.484C5 137.331 7.016 139.641 9.5 139.641H16.25V157.688C16.25 160.536 18.2637 162.844 20.75 162.844H135.5C137.986 162.844 140 160.536 140 157.688V8.15625C140 5.30742 137.986 3 135.5 3H20.75C18.2637 3 16.25 5.30742 16.25 8.15625V26.2031ZM25.25 139.641V152.531H131V13.3125H25.25V26.2031H32C34.484 26.2031 36.5 28.5131 36.5 31.3594C36.5 34.2056 34.484 36.5156 32 36.5156H25.25V51.9844H32C34.484 51.9844 36.5 54.2944 36.5 57.1406C36.5 59.9869 34.484 62.2969 32 62.2969H25.25V77.7656H32C34.484 77.7656 36.5 80.0756 36.5 82.9219C36.5 85.7681 34.484 88.0781 32 88.0781H25.25V103.547H32C34.484 103.547 36.5 105.857 36.5 108.703C36.5 111.549 34.484 113.859 32 113.859H25.25V129.328H32C34.484 129.328 36.5 131.638 36.5 134.484C36.5 137.331 34.484 139.641 32 139.641H25.25Z" fill="url(#paint0_linear_601_220)"/>
<path fill-rule="evenodd" clip-rule="evenodd" d="M117.501 31.3597C117.501 28.5125 115.485 26.2031 113 26.2031H54.5001C52.0157 26.2031 49.9993 28.5125 49.9993 31.3597V77.7658C49.9993 80.6129 52.0157 82.9223 54.5001 82.9223H113C115.485 82.9223 117.501 80.6129 117.501 77.7658V31.3597ZM108.499 36.5162V72.6092H59.001V36.5162H108.499Z" fill="url(#paint1_linear_601_220)"/>
<path fill-rule="evenodd" clip-rule="evenodd" d="M68 51.9844H99.5C101.984 51.9844 104 49.6744 104 46.8281C104 43.9819 101.984 41.6719 99.5 41.6719H68C65.516 41.6719 63.5 43.9819 63.5 46.8281C63.5 49.6744 65.516 51.9844 68 51.9844Z" fill="url(#paint2_linear_601_220)"/>
<path fill-rule="evenodd" clip-rule="evenodd" d="M68 67.4531H99.5C101.984 67.4531 104 65.1431 104 62.2969C104 59.4506 101.984 57.1406 99.5 57.1406H68C65.516 57.1406 63.5 59.4506 63.5 62.2969C63.5 65.1431 65.516 67.4531 68 67.4531Z" fill="url(#paint3_linear_601_220)"/>
<defs>
<linearGradient id="paint0_linear_601_220" x1="-24" y1="34.224" x2="170.444" y2="160.066" gradientUnits="userSpaceOnUse">
<stop offset="0.229139" stop-color="#F83D56"/>
<stop offset="1" stop-color="#F2F2F2"/>
</linearGradient>
<linearGradient id="paint1_linear_601_220" x1="35.4989" y1="37.2827" x2="110.811" y2="105.965" gradientUnits="userSpaceOnUse">
<stop offset="0.229139" stop-color="#F83D56"/>
<stop offset="1" stop-color="#F2F2F2"/>
</linearGradient>
<linearGradient id="paint2_linear_601_220" x1="54.8" y1="43.6863" x2="63.03" y2="68.4539" gradientUnits="userSpaceOnUse">
<stop offset="0.229139" stop-color="#F83D56"/>
<stop offset="1" stop-color="#F2F2F2"/>
</linearGradient>
<linearGradient id="paint3_linear_601_220" x1="54.8" y1="59.1551" x2="63.03" y2="83.9226" gradientUnits="userSpaceOnUse">
<stop offset="0.229139" stop-color="#F83D56"/>
<stop offset="1" stop-color="#F2F2F2"/>
</linearGradient>
</defs>
</svg>
